<svg height="512" viewBox="0 0 512 512" width="512" xmlns="http://www.w3.org/2000/svg"><g id="Social_Distancing-3" data-name="Social Distancing"><g id="Flat"><path d="m40 320a40.045 40.045 0 0 1 -40-40v-48a8 8 0 0 1 8-8h32a8 8 0 0 1 8 8v80a8 8 0 0 1 -8 8z" fill="#ffdecf"/><path d="m104 320a8 8 0 0 1 -8-8v-80a8 8 0 0 1 8-8h32a8 8 0 0 1 8 8v48a40.045 40.045 0 0 1 -40 40z" fill="#ffdecf"/><rect fill="#d8ad82" height="160" rx="8" width="80" x="32" y="272"/><path d="m32 390.386v33.614a8 8 0 0 0 8 8h64a8 8 0 0 0 8-8v-82.679a123.95 123.95 0 0 1 -80 49.065z" fill="#cc9f76"/><path d="m72 432a8 8 0 0 1 -8-8v-112a8 8 0 0 1 16 0v112a8 8 0 0 1 -8 8z" fill="#bc8e68"/><path d="m72 464h-56a8 8 0 0 1 -8-8 40.045 40.045 0 0 1 40-40h24a8 8 0 0 1 8 8v32a8 8 0 0 1 -8 8z" fill="#3b465e"/><path d="m104 464h-56a8 8 0 0 1 -8-8 40.045 40.045 0 0 1 40-40h24a8 8 0 0 1 8 8v32a8 8 0 0 1 -8 8z" fill="#495268"/><path d="m99.561 152c5.756-7.382 12.439-21.622 12.439-48a8 8 0 0 0 -8-8h-64a8 8 0 0 0 -8 8c0 26.378 6.683 40.618 12.439 48z" fill="#ffdecf"/><path d="m104 288h-64a8 8 0 0 1 -8-8v-40h-24a8 8 0 0 1 -8-8v-32c0-19.361 9.671-35.237 27.969-45.91 11.06-6.452 24.79-10.09 28.031-10.09h32c7.3 0 56 12.568 56 56v32a8 8 0 0 1 -8 8h-24v40a8 8 0 0 1 -8 8z" fill="#9ba3d1"/><g fill="#f27c6d"><circle cx="256" cy="368" r="8"/><path d="m224 360h-80v-16a8 8 0 0 0 -16 0v48a8 8 0 0 0 16 0v-16h80a8 8 0 0 0 0-16z"/><path d="m376 336a8 8 0 0 0 -8 8v16h-80a8 8 0 0 0 0 16h80v16a8 8 0 0 0 16 0v-48a8 8 0 0 0 -8-8z"/></g><path d="m240 216c-5.54 0-3.56-1.439-61.206-49.926a8 8 0 0 1 -.45-11.731l24-24a8 8 0 0 1 10.456-.743l26.45 19.837 59.093-59.094a8 8 0 0 1 11.314 0l24 24a8 8 0 0 1 0 11.314c-90.747 89.497-87.357 90.343-93.657 90.343z" fill="#a6d96b"/><path d="m104 112h-62a26.03 26.03 0 0 1 -26-26v-30c0-8.467 10.289-11.09 14.325-4.919.78.779 5.497 4.919 17.675 4.919h38a26.03 26.03 0 0 1 26 26v22a8 8 0 0 1 -8 8z" fill="#495268"/><path d="m86 56h-1.723a104.316 104.316 0 0 1 -58.42 50.359 25.866 25.866 0 0 0 16.143 5.641h62a8 8 0 0 0 8-8v-22a26.03 26.03 0 0 0 -26-26z" fill="#3b465e"/><path d="m126.685 161.794a120.1 120.1 0 0 1 -94.685 99.806v18.4a8 8 0 0 0 8 8h64a8 8 0 0 0 8-8v-40h24a8 8 0 0 0 8-8v-32c0-17.2-7.638-29.551-17.315-38.206z" fill="#8a95c4"/><circle cx="44" cy="180" fill="#bac1dd" r="20"/><circle cx="84" cy="204" fill="#bac1dd" r="12"/><path d="m333.657 114.343-24-24a8 8 0 0 0 -11.314 0l-20.637 20.638a136.236 136.236 0 0 1 -9.288 79.933c13.147-13.367 33.39-33.847 65.239-65.257a8 8 0 0 0 0-11.314z" fill="#87ba50"/><path d="m408 320a40.045 40.045 0 0 1 -40-40v-48a8 8 0 0 1 8-8h32a8 8 0 0 1 8 8v80a8 8 0 0 1 -8 8z" fill="#ffdecf"/><path d="m472 320a8 8 0 0 1 -8-8v-80a8 8 0 0 1 8-8h32a8 8 0 0 1 8 8v48a40.045 40.045 0 0 1 -40 40z" fill="#ffdecf"/><rect fill="#d8ad82" height="160" rx="8" width="80" x="400" y="272"/><path d="m400 390.386v33.614a8 8 0 0 0 8 8h64a8 8 0 0 0 8-8v-82.679a123.95 123.95 0 0 1 -80 49.065z" fill="#cc9f76"/><path d="m440 432a8 8 0 0 1 -8-8v-112a8 8 0 0 1 16 0v112a8 8 0 0 1 -8 8z" fill="#bc8e68"/><path d="m440 464h-56a8 8 0 0 1 -8-8 40.045 40.045 0 0 1 40-40h24a8 8 0 0 1 8 8v32a8 8 0 0 1 -8 8z" fill="#3b465e"/><path d="m472 464h-56a8 8 0 0 1 -8-8 40.045 40.045 0 0 1 40-40h24a8 8 0 0 1 8 8v32a8 8 0 0 1 -8 8z" fill="#495268"/><path d="m467.561 152c5.756-7.382 12.439-21.622 12.439-48a8 8 0 0 0 -8-8h-64a8 8 0 0 0 -8 8c0 26.378 6.683 40.618 12.439 48z" fill="#ffdecf"/><path d="m472 288h-64a8 8 0 0 1 -8-8v-40h-24a8 8 0 0 1 -8-8v-32c0-19.361 9.671-35.237 27.969-45.91 11.06-6.452 24.79-10.09 28.031-10.09h32c7.3 0 56 12.568 56 56v32a8 8 0 0 1 -8 8h-24v40a8 8 0 0 1 -8 8z" fill="#9ba3d1"/><path d="m472 112h-62a26.03 26.03 0 0 1 -26-26v-30c0-8.467 10.289-11.09 14.325-4.919.78.779 5.5 4.919 17.675 4.919h38a26.03 26.03 0 0 1 26 26v22a8 8 0 0 1 -8 8z" fill="#495268"/><path d="m454 56h-1.723a104.316 104.316 0 0 1 -58.42 50.359 25.866 25.866 0 0 0 16.143 5.641h62a8 8 0 0 0 8-8v-22a26.03 26.03 0 0 0 -26-26z" fill="#3b465e"/><path d="m494.685 161.794a120.1 120.1 0 0 1 -94.685 99.806v18.4a8 8 0 0 0 8 8h64a8 8 0 0 0 8-8v-40h24a8 8 0 0 0 8-8v-32c0-17.2-7.638-29.551-17.315-38.206z" fill="#8a95c4"/><circle cx="412" cy="180" fill="#bac1dd" r="20"/><circle cx="452" cy="204" fill="#bac1dd" r="12"/></g></g></svg>