<svg id="Layer_1" data-name="Layer 1" xmlns="http://www.w3.org/2000/svg" viewBox="0 0 68.19 62"><defs><style>.cls-1{fill:#ED171F;}</style></defs><title>Artboard 1 copy 2</title><path class="cls-1" d="M46.76,3.65C60.24,7.89,62.12,23.59,62.12,23.59a42.37,42.37,0,0,1-.44,11.74c-.53,2.23-1,8.09-10.64,15.61-1.85,1.47-4,3.15-6.26,3.35-.27,0-.57.05-.68-.15s.27-.74.37-.81C50.31,49.87,58.39,44,58.73,30.18c0,0,.8-13-7.23-19.19a31.51,31.51,0,0,0-9.25-5c-.43-.12-4.48-1-4.59-.33-.15,1,1.49,1,2.31,1a13.78,13.78,0,0,1,4.86,1.51c7,3.44,8.79,7.43,9.41,8.41,2.7,4.29,2.6,12.52,2.6,13.71.1,7.43-3.81,12.52-5.57,14.93-3,4.12-9.7,9.37-20.64,10.31a25.49,25.49,0,0,1-13.78-2.91A20.68,20.68,0,0,1,9.7,45.46c-.52-1-1.52-3.49-.34-3.74.72-.13,1.76,2.05,3.69,4.14a21,21,0,0,0,6.18,4.94c3.47,1.71,7.68,2.68,9.43,2.39a.3.3,0,0,0,0-.6,42.65,42.65,0,0,1-4.91-1.07,27.81,27.81,0,0,1-10.72-7.86,18,18,0,0,1-3-7,58.14,58.14,0,0,1-.17-11.14A21.27,21.27,0,0,1,17.3,12.6c2.68-2.36,7.63-4,8.91-4.62a.22.22,0,0,0-.06-.4,1.85,1.85,0,0,0-.77.06c-.18.05-.37.08-.59.13-.55.1-16.44,3.69-16.61,23,0,1.74-1.51.75-1.7-.31A20.65,20.65,0,0,1,6.7,22a23.29,23.29,0,0,1,7.64-12C19,6,25.47,3.73,30.9,2.8c4.58-.81,8.33-1.52,15.86.85m-39,36.17a.78.78,0,0,0,1-.85,12.45,12.45,0,0,1-.24-2.16,4.28,4.28,0,0,0-.65-2.44,1.47,1.47,0,0,0-1.09-.55c-2,0-1.32,3.13-1,4.2a2.4,2.4,0,0,0,.71,1.22,2.8,2.8,0,0,0,1.31.58"/></svg>